<svg xmlns="http://www.w3.org/2000/svg" width="286.356" height="45.099" viewBox="0 0 286.356 45.099">
  <g id="Group_568" data-name="Group 568" transform="translate(-109.256 -209.238)">
    <g id="Group_565" data-name="Group 565" transform="translate(109.256 209.238)">
      <path id="Path_699" data-name="Path 699" d="M160.493,209.238v7.843h-7.461v6.8h7.461v7.836h6.8V209.238Z" transform="translate(-132.021 -209.238)" fill="#221f1f"/>
      <g id="Group_562" data-name="Group 562" transform="translate(14.236 14.617)">
        <path id="Path_700" data-name="Path 700" d="M153.176,254.327h-7.139a7.128,7.128,0,0,1-7.12-7.12v-7.514h6.8v7.514a.323.323,0,0,0,.322.322h7.139Z" transform="translate(-138.917 -239.693)" fill="#0061ff"/>
      </g>
      <g id="Group_563" data-name="Group 563" transform="translate(0 29.227)">
        <path id="Path_701" data-name="Path 701" d="M123.516,284.769h-14.26V270.134h6.8v7.836h7.461Z" transform="translate(-109.256 -270.134)" fill="#221f1f"/>
      </g>
      <g id="Group_564" data-name="Group 564" transform="translate(6.774 22.453)">
        <path id="Path_702" data-name="Path 702" d="M137.63,270.654h-6.8V263.14a.322.322,0,0,0-.322-.322h-7.139v-6.8h7.139a7.128,7.128,0,0,1,7.12,7.12Z" transform="translate(-123.371 -256.02)" fill="#0061ff"/>
      </g>
    </g>
    <g id="Group_567" data-name="Group 567" transform="translate(159.806 220.88)">
      <path id="Path_703" data-name="Path 703" d="M229.633,234.054a8.5,8.5,0,0,1,4.378,3.259,11.447,11.447,0,0,1,1.831,4.148,19.908,19.908,0,0,1,.489,4.252,17.068,17.068,0,0,1-2.059,8.679,9.286,9.286,0,0,1-8.615,4.792H214.581V233.5h11.075A13.526,13.526,0,0,1,229.633,234.054Zm-9.566,3.9v16.765h5.2a5.353,5.353,0,0,0,5.306-3.747,13.189,13.189,0,0,0,.821-4.9,12.045,12.045,0,0,0-1.231-6.021q-1.231-2.1-4.9-2.1Z" transform="translate(-214.581 -233.496)"/>
      <path id="Path_704" data-name="Path 704" d="M278.066,247.276a7.731,7.731,0,0,1,3.282,2.811,9.341,9.341,0,0,1,1.514,3.927,24.386,24.386,0,0,1,.163,3.77H269.191a4.56,4.56,0,0,0,1.987,4.009,5.048,5.048,0,0,0,2.738.714,3.859,3.859,0,0,0,3.78-2.178h5.071a6.2,6.2,0,0,1-1.842,3.433,9.232,9.232,0,0,1-7.146,2.771,10.355,10.355,0,0,1-6.691-2.338q-2.9-2.337-2.9-7.6,0-4.936,2.617-7.57a9.157,9.157,0,0,1,6.792-2.634A10.817,10.817,0,0,1,278.066,247.276Zm-7.43,4.291a5.162,5.162,0,0,0-1.323,2.94h8.557a4.15,4.15,0,0,0-1.323-3,4.354,4.354,0,0,0-2.945-1.024A3.937,3.937,0,0,0,270.636,251.567Z" transform="translate(-240.38 -240.199)"/>
      <path id="Path_705" data-name="Path 705" d="M320.813,253.762a4.4,4.4,0,0,0-.717-1.917,3.005,3.005,0,0,0-2.6-1.151,3.427,3.427,0,0,0-3.441,2.492,10.339,10.339,0,0,0-.49,3.511,9.5,9.5,0,0,0,.49,3.355,3.32,3.32,0,0,0,3.353,2.37,2.961,2.961,0,0,0,2.481-.941,4.671,4.671,0,0,0,.891-2.44h5.071a8.3,8.3,0,0,1-1.64,4.287,7.974,7.974,0,0,1-6.925,3.259q-4.589,0-6.752-2.719a10.98,10.98,0,0,1-2.164-7.05q0-4.888,2.391-7.606a8.32,8.32,0,0,1,6.594-2.719,9.932,9.932,0,0,1,5.852,1.6q2.278,1.6,2.7,5.664Z" transform="translate(-263.356 -240.256)"/>
      <path id="Path_706" data-name="Path 706" d="M355.309,259.184h-4.966V233.5h4.966Z" transform="translate(-285.184 -233.496)"/>
      <path id="Path_707" data-name="Path 707" d="M375.324,254.389a7.851,7.851,0,0,0,1.984-.435,1.5,1.5,0,0,0,1.071-1.411,1.668,1.668,0,0,0-.822-1.612,5.2,5.2,0,0,0-2.412-.444,3.168,3.168,0,0,0-2.526.872,3.592,3.592,0,0,0-.706,1.742H367.12a7.272,7.272,0,0,1,1.4-4.1q1.978-2.509,6.791-2.509a12.112,12.112,0,0,1,5.565,1.237q2.433,1.238,2.433,4.67v8.713q0,.906.035,2.2a2.756,2.756,0,0,0,.3,1.324,1.768,1.768,0,0,0,.732.575v.732h-5.4a5.475,5.475,0,0,1-.313-1.081q-.088-.505-.14-1.15a10.242,10.242,0,0,1-2.384,1.9,7.2,7.2,0,0,1-3.646.924,6.293,6.293,0,0,1-4.286-1.472,5.237,5.237,0,0,1-1.691-4.174,5.409,5.409,0,0,1,2.721-5.071,12.146,12.146,0,0,1,4.389-1.22Zm3.037,2.318a5.57,5.57,0,0,1-.963.479,8.2,8.2,0,0,1-1.334.34l-1.13.209a7.452,7.452,0,0,0-2.283.68,2.269,2.269,0,0,0-1.174,2.109,2.2,2.2,0,0,0,.717,1.838,2.727,2.727,0,0,0,1.743.567,5.19,5.19,0,0,0,3-.941,3.987,3.987,0,0,0,1.424-3.433Z" transform="translate(-293.592 -240.256)"/>
      <path id="Path_708" data-name="Path 708" d="M419.692,246.5c.064.006.206.015.427.026v5.089c-.314-.036-.592-.059-.837-.07s-.441-.017-.592-.017q-3,0-4.026,1.952a7.6,7.6,0,0,0-.575,3.381v9.08h-5v-19h4.74v3.311a10.533,10.533,0,0,1,2-2.6,5.459,5.459,0,0,1,3.625-1.167Q419.6,246.495,419.692,246.5Z" transform="translate(-315.735 -240.256)"/>
      <path id="Path_709" data-name="Path 709" d="M448.416,247.276a7.735,7.735,0,0,1,3.283,2.811,9.334,9.334,0,0,1,1.513,3.927,24.31,24.31,0,0,1,.164,3.77H439.541a4.558,4.558,0,0,0,1.986,4.009,5.049,5.049,0,0,0,2.739.714,4.2,4.2,0,0,0,2.758-.872,4.15,4.15,0,0,0,1.022-1.306h5.07a6.2,6.2,0,0,1-1.84,3.433,9.233,9.233,0,0,1-7.146,2.771,10.353,10.353,0,0,1-6.691-2.338q-2.9-2.337-2.9-7.6,0-4.936,2.617-7.57a9.16,9.16,0,0,1,6.793-2.634A10.818,10.818,0,0,1,448.416,247.276Zm-7.431,4.291a5.158,5.158,0,0,0-1.322,2.94h8.556a4.145,4.145,0,0,0-1.322-3,4.356,4.356,0,0,0-2.946-1.024A3.941,3.941,0,0,0,440.985,251.567Z" transform="translate(-328.971 -240.199)"/>
      <path id="Path_710" data-name="Path 710" d="M479.3,259.188V233.5h8.778q1.07,0,2.105.053a14.484,14.484,0,0,1,2.034.25,10.212,10.212,0,0,1,1.945.589A9.158,9.158,0,0,1,496,235.423a7.806,7.806,0,0,1,2.106,2.266,13.2,13.2,0,0,1,1.3,2.819,16.571,16.571,0,0,1,.678,3,22.081,22.081,0,0,1,.2,2.8,21.566,21.566,0,0,1-.16,2.6,17.2,17.2,0,0,1-.517,2.587,13.319,13.319,0,0,1-.946,2.426,9.314,9.314,0,0,1-1.481,2.123,7.889,7.889,0,0,1-1.945,1.605,10.046,10.046,0,0,1-2.212.946,13.23,13.23,0,0,1-2.409.464q-1.25.125-2.534.125Zm2.427-2.07h5.816a22.934,22.934,0,0,0,3.087-.2,8.929,8.929,0,0,0,2.944-.981,5.813,5.813,0,0,0,2.106-1.748,9.632,9.632,0,0,0,1.3-2.408,12.934,12.934,0,0,0,.678-2.73,20.285,20.285,0,0,0,.2-2.747,23.127,23.127,0,0,0-.179-2.837,11.645,11.645,0,0,0-.678-2.747,9.138,9.138,0,0,0-1.356-2.391,6.8,6.8,0,0,0-2.213-1.8,7.559,7.559,0,0,0-2.712-.785,28.2,28.2,0,0,0-3.176-.179h-5.816Z" transform="translate(-352.247 -233.496)"/>
      <path id="Path_711" data-name="Path 711" d="M529.93,256.9a9.837,9.837,0,0,0,.424,2.914,6.908,6.908,0,0,0,1.253,2.382,6.018,6.018,0,0,0,2.1,1.613,6.751,6.751,0,0,0,2.93.6,6.6,6.6,0,0,0,3.894-1.136,5.456,5.456,0,0,0,2.159-3.226h2.584a11.578,11.578,0,0,1-1.118,2.511,7.845,7.845,0,0,1-1.735,2.016,7.6,7.6,0,0,1-2.467,1.338,10.488,10.488,0,0,1-3.316.477,10.106,10.106,0,0,1-4.125-.77,7.734,7.734,0,0,1-2.853-2.107A8.72,8.72,0,0,1,528,260.368a13.6,13.6,0,0,1-.539-3.9,11.875,11.875,0,0,1,.636-3.922,9.839,9.839,0,0,1,1.812-3.207,8.369,8.369,0,0,1,2.872-2.162,9.051,9.051,0,0,1,3.855-.788,8.15,8.15,0,0,1,6.477,2.694q2.351,2.694,2.313,7.826Zm13.032-1.832a8.312,8.312,0,0,0-.405-2.621,6.043,6.043,0,0,0-1.195-2.126,5.68,5.68,0,0,0-1.986-1.43,6.688,6.688,0,0,0-2.738-.531,6.356,6.356,0,0,0-2.718.55,6.231,6.231,0,0,0-2.005,1.466,7.314,7.314,0,0,0-1.33,2.126,9.462,9.462,0,0,0-.656,2.566Z" transform="translate(-377.296 -240.199)"/>
      <path id="Path_712" data-name="Path 712" d="M571.03,259.947a5.579,5.579,0,0,0,1.851,3.464,6.268,6.268,0,0,0,3.83,1.008,6.622,6.622,0,0,0,2.089-.293,4.192,4.192,0,0,0,1.448-.788,3.4,3.4,0,0,0,.862-1.118,3.063,3.063,0,0,0,.293-1.32,2.429,2.429,0,0,0-.9-2.071,6.789,6.789,0,0,0-2.254-1.063,29.025,29.025,0,0,0-2.932-.66,14.356,14.356,0,0,1-2.932-.825,5.864,5.864,0,0,1-2.254-1.576,4.253,4.253,0,0,1-.9-2.9,4.949,4.949,0,0,1,1.741-3.9,7.259,7.259,0,0,1,4.93-1.521,8.414,8.414,0,0,1,5,1.375,6.288,6.288,0,0,1,2.328,4.6H581a4.113,4.113,0,0,0-1.668-3.1,6.213,6.213,0,0,0-3.464-.9,4.935,4.935,0,0,0-3.189.9,2.9,2.9,0,0,0-1.1,2.364,2.307,2.307,0,0,0,.9,1.961,7.3,7.3,0,0,0,2.254,1.1q1.356.422,2.932.751a14.473,14.473,0,0,1,2.932.935A6.433,6.433,0,0,1,582.851,258a4.2,4.2,0,0,1,.9,2.859,4.821,4.821,0,0,1-.587,2.4,5.1,5.1,0,0,1-1.613,1.741,7.512,7.512,0,0,1-2.438,1.045,12.943,12.943,0,0,1-3.1.348,8.37,8.37,0,0,1-2.988-.495,6.474,6.474,0,0,1-2.217-1.375,6.333,6.333,0,0,1-1.43-2.052,7.218,7.218,0,0,1-.586-2.529Z" transform="translate(-398.79 -240.199)"/>
      <g id="Group_566" data-name="Group 566" transform="translate(186.895 6.71)">
        <path id="Path_713" data-name="Path 713" d="M611.281,264.4V247.477h-7.294v2.071h5V264.4h-5v2.053h12.2V264.4Z" transform="translate(-603.987 -247.477)"/>
      </g>
      <path id="Path_714" data-name="Path 714" d="M646.559,246.9h2.2v17.154a16.873,16.873,0,0,1-.385,3.647A7.867,7.867,0,0,1,647,270.76a6.893,6.893,0,0,1-2.713,2.108,12.665,12.665,0,0,1-8.027.256,7.781,7.781,0,0,1-2.456-1.338,5.777,5.777,0,0,1-1.448-1.778,4.454,4.454,0,0,1-.531-1.814h2.346a4.344,4.344,0,0,0,.806,1.741,4.034,4.034,0,0,0,1.3,1.063,5.561,5.561,0,0,0,1.667.531,12.088,12.088,0,0,0,1.906.147,7.258,7.258,0,0,0,3.592-.77,5.262,5.262,0,0,0,2.053-2.016,7.751,7.751,0,0,0,.9-2.822,21.72,21.72,0,0,0,.165-3.226,6.813,6.813,0,0,1-2.914,2.657,8.757,8.757,0,0,1-3.867.9,8.076,8.076,0,0,1-3.757-.825,7.719,7.719,0,0,1-2.639-2.2,9.458,9.458,0,0,1-1.557-3.207,14.05,14.05,0,0,1-.513-3.812,15.535,15.535,0,0,1,.477-3.922,8.583,8.583,0,0,1,1.521-3.171,7.3,7.3,0,0,1,2.657-2.107,9.05,9.05,0,0,1,3.922-.77,7.186,7.186,0,0,1,1.869.257,8.868,8.868,0,0,1,1.851.733,7.16,7.16,0,0,1,1.65,1.209,6.472,6.472,0,0,1,1.228,1.65h.073Zm0,9.567a11.705,11.705,0,0,0-.422-3.207,7.82,7.82,0,0,0-1.228-2.566,5.786,5.786,0,0,0-2.016-1.7,5.917,5.917,0,0,0-2.749-.623,6.533,6.533,0,0,0-2.566.495,5.874,5.874,0,0,0-2.053,1.448,6.771,6.771,0,0,0-1.375,2.328,9.345,9.345,0,0,0-.495,3.171,12.377,12.377,0,0,0,.293,3.354,8,8,0,0,0,1.173,2.731,5.84,5.84,0,0,0,2.053,1.851,6.116,6.116,0,0,0,2.969.678,5.592,5.592,0,0,0,2.694-.641,6.214,6.214,0,0,0,2.016-1.723,7.911,7.911,0,0,0,1.265-2.529A10.472,10.472,0,0,0,646.559,256.465Z" transform="translate(-431.302 -240.199)"/>
      <path id="Path_715" data-name="Path 715" d="M676.708,265.885h-2.2V246.9h2.2v2.639a13.95,13.95,0,0,1,2.73-2.272,6.283,6.283,0,0,1,3.391-.88,8.661,8.661,0,0,1,3.262.6,5.572,5.572,0,0,1,2.529,2.107,4.741,4.741,0,0,1,.824,2.108,19.259,19.259,0,0,1,.128,2.254v12.425h-2.2V253.5a5.659,5.659,0,0,0-1.136-3.849,4.825,4.825,0,0,0-3.775-1.283,5.367,5.367,0,0,0-1.87.311,5.9,5.9,0,0,0-1.521.825,5.53,5.53,0,0,0-1.154,1.173,5.426,5.426,0,0,0-.733,1.393,6.972,6.972,0,0,0-.4,1.759q-.074.844-.073,1.833Z" transform="translate(-453.767 -240.199)"/>
      <circle id="Ellipse_14" data-name="Ellipse 14" cx="1.685" cy="1.685" r="1.685" transform="translate(189.929 0)"/>
    </g>
  </g>
</svg>
